# Blender v2.74 (sub 0) OBJ File: ''
# www.blender.org
mtllib pointer.mtl
o arrow_model
v 0.001029 0.765000 -0.876630
v 0.001029 1.015000 0.299400
v -0.733970 0.765000 0.833370
v 0.001029 0.765000 0.299400
v 0.001029 0.515000 0.299400
v 0.736030 0.765000 0.833370
vt 85.106796 -32.132702
vt 0.031997 9.396380
vt -61.449799 -32.132702
vt -0.065554 0.000000
vt 71.468903 0.000000
vt -0.065554 19.684999
vt -0.065554 -19.684999
vt -71.599998 0.000000
vt -61.513802 32.263802
vt -0.031997 -9.265280
vt 85.042801 32.263802
vt 85.106796 32.132702
vt -61.449799 32.132702
vt 0.031997 -9.396380
vt -92.600700 0.000000
vt 0.000000 -19.684999
vt 0.000000 0.000000
vt 0.000000 19.684999
vt 61.513802 -32.263802
vt 0.031997 9.265280
vt -85.042801 -32.263802
vn 0.435500 -0.880500 0.187200
vn -0.587800 0.000000 -0.809000
vn 0.587800 0.000000 -0.809000
vn 0.435500 -0.880500 -0.187200
vn 0.435500 0.880500 0.187200
vn -1.000000 0.000000 0.000000
vn -0.435500 -0.880500 0.187200
usemtl arrow_material
s 1
f 1/1/1 2/2/1 3/3/1
f 4/4/2 3/5/2 2/6/2
f 3/5/2 4/4/2 5/7/2
f 4/4/3 6/8/3 5/7/3
f 6/8/3 4/4/3 2/6/3
f 6/9/4 5/10/4 1/11/4
f 1/12/5 3/13/5 5/14/5
f 1/15/6 5/16/6 4/17/6
f 1/15/6 4/17/6 2/18/6
f 6/19/7 2/20/7 1/21/7
