{"accessors":[{"name":"pCylinder1_1_positions","componentType":5126,"count":84,"min":[-4.187183856964111,-4.187182903289795,-4.187184810638428],"max":[4.187182903289795,4.187182903289795,4.187182903289795],"type":"VEC3","bufferView":0,"byteOffset":0},{"name":"pCylinder1_1_normals","componentType":5126,"count":84,"min":[-1,-1,-1],"max":[1,1,1],"type":"VEC3","bufferView":0,"byteOffset":1008},{"name":"pCylinder1_1_texcoords","componentType":5126,"count":84,"min":[0.34375,0],"max":[0.65625,1],"type":"VEC2","bufferView":1,"byteOffset":0},{"name":"pCylinder1_1_0_indices","componentType":5123,"count":240,"min":[0],"max":[83],"type":"SCALAR","bufferView":2,"byteOffset":0}],"asset":{"generator":"obj2gltf","version":"2.0"},"buffers":[{"name":"input","byteLength":3168,"uri":"data:application/octet-stream;base64,"}],"bufferViews":[{"name":"bufferView_0","buffer":0,"byteLength":2016,"byteOffset":0,"byteStride":12,"target":34962},{"name":"bufferView_1","buffer":0,"byteLength":672,"byteOffset":2016,"byteStride":8,"target":34962},{"name":"bufferView_2","buffer":0,"byteLength":480,"byteOffset":2688,"target":34963}],"materials":[{"name":"initialShadingGroup","pbrMetallicRoughness":{"baseColorFactor":[0.5,0.5,0.5,1],"metallicFactor":0,"roughnessFactor":1},"emissiveFactor":[0,0,0],"alphaMode":"OPAQUE","doubleSided":false}],"meshes":[{"name":"pCylinder1_1","primitives":[{"attributes":{"POSITION":0,"NORMAL":1,"TEXCOORD_0":2},"indices":3,"material":0,"mode":4}]}],"nodes":[{"name":"pCylinder1","mesh":0}],"scene":0,"scenes":[{"nodes":[0]}]}
