{
    "asset": {
        "copyright": "(C)2019 ",
        "generator": "maya2glTF V0.9.11 cmake 5c271ea",
        "version": "2.0"
    },
    "scenes": [
        {
            "nodes": [
                0
            ]
        }
    ],
    "scene": 0,
    "nodes": [
        {
            "mesh": 0,
            "scale": [
                6.051944732666016,
                6.051944732666016,
                6.051944732666016
            ],
            "name": "pSphere1"
        }
    ],
    "meshes": [
        {
            "primitives": [
                {
                    "attributes": {
                        "NORMAL": 1,
                        "POSITION": 2,
                        "TANGENT": 3,
                        "TEXCOORD_0": 4
                    },
                    "indices": 0,
                    "mode": 4,
                    "material": 0
                }
            ],
            "name": "pSphereShape1"
        }
    ],
    "accessors": [
        {
            "bufferView": 0,
            "byteOffset": 0,
            "componentType": 5123,
            "count": 2280,
            "max": [
                438
            ],
            "min": [
                0
            ],
            "type": "SCALAR"
        },
        {
            "bufferView": 1,
            "byteOffset": 0,
            "componentType": 5126,
            "count": 439,
            "max": [
                1.0,
                1.0,
                1.0
            ],
            "min": [
                -1.0,
                -1.0,
                -1.0
            ],
            "type": "VEC3"
        },
        {
            "bufferView": 1,
            "byteOffset": 5268,
            "componentType": 5126,
            "count": 439,
            "max": [
                1.0,
                1.0,
                1.0000001192092896
            ],
            "min": [
                -1.000000238418579,
                -1.0,
                -1.0000004768371585
            ],
            "type": "VEC3"
        },
        {
            "bufferView": 2,
            "byteOffset": 0,
            "componentType": 5126,
            "count": 439,
            "max": [
                1.0,
                0.07869059592485428,
                1.0,
                1.0
            ],
            "min": [
                -1.0,
                -0.07869064062833786,
                -1.0,
                1.0
            ],
            "type": "VEC4"
        },
        {
            "bufferView": 3,
            "byteOffset": 0,
            "componentType": 5126,
            "count": 439,
            "max": [
                1.0000001192092896,
                1.0
            ],
            "min": [
                0.0,
                0.0
            ],
            "type": "VEC2"
        }
    ],
    "materials": [
        {
            "pbrMetallicRoughness": {
                "baseColorFactor": [
                    0.6514400243759155,
                    0.0,
                    0.0,
                    1.0
                ],
                "metallicFactor": 0.0,
                "roughnessFactor": 1.0
            },
            "name": "lambert2"
        }
    ],
    "bufferViews": [
        {
            "buffer": 0,
            "byteOffset": 21072,
            "byteLength": 4560,
            "target": 34963
        },
        {
            "buffer": 0,
            "byteOffset": 7024,
            "byteLength": 10536,
            "byteStride": 12,
            "target": 34962
        },
        {
            "buffer": 0,
            "byteOffset": 0,
            "byteLength": 7024,
            "byteStride": 16,
            "target": 34962
        },
        {
            "buffer": 0,
            "byteOffset": 17560,
            "byteLength": 3512,
            "byteStride": 8,
            "target": 34962
        }
    ],
    "buffers": [
        {
            "byteLength": 25632,
            "uri": "testFile30.bin"
        }
    ]
}
