{
  "accessors": [
    {
      "bufferView": 2,
      "componentType": 5126,
      "count": 801,
      "max": [
        39.024600982666016,
        5.9875001907348633,
        162.4241943359375
      ],
      "min": [
        -39.279998779296875,
        -198.15310668945312,
        16.400100708007812
      ],
      "type": "VEC3"
    },
    {
      "bufferView": 2,
      "byteOffset": 9612,
      "componentType": 5126,
      "count": 801,
      "max": [
        1,
        1,
        1
      ],
      "min": [
        -1,
        -0.95138388872146606,
        -1
      ],
      "type": "VEC3"
    },
    {
      "bufferView": 3,
      "componentType": 5126,
      "count": 801,
      "max": [
        0.99999862909317017,
        1,
        1,
        1
      ],
      "min": [
        -1,
        -1,
        -0.99999856948852539,
        -1
      ],
      "type": "VEC4"
    },
    {
      "bufferView": 1,
      "componentType": 5126,
      "count": 801,
      "max": [
        0.98409998416900635,
        0.82080000638961792
      ],
      "min": [
        0.0096000004559755325,
        0.44600000977516174
      ],
      "type": "VEC2"
    },
    {
      "bufferView": 0,
      "componentType": 5125,
      "count": 2802,
      "max": [
        800
      ],
      "min": [
        0
      ],
      "type": "SCALAR"
    },
    {
      "bufferView": 2,
      "byteOffset": 19224,
      "componentType": 5126,
      "count": 9084,
      "max": [
        39.759101867675781,
        9.4060001373291016,
        171.43009948730469
      ],
      "min": [
        -39.759101867675781,
        -198.14129638671875,
        1.756600022315979
      ],
      "type": "VEC3"
    },
    {
      "bufferView": 2,
      "byteOffset": 128232,
      "componentType": 5126,
      "count": 9084,
      "max": [
        1,
        1,
        1
      ],
      "min": [
        -1,
        -1,
        -1
      ],
      "type": "VEC3"
    },
    {
      "bufferView": 3,
      "byteOffset": 12816,
      "componentType": 5126,
      "count": 9084,
      "max": [
        1,
        1,
        1,
        1
      ],
      "min": [
        -1,
        -1,
        -1,
        -1
      ],
      "type": "VEC4"
    },
    {
      "bufferView": 1,
      "byteOffset": 6408,
      "componentType": 5126,
      "count": 9084,
      "max": [
        0.99639999866485596,
        0.87650001049041748
      ],
      "min": [
        0.00030000001424923539,
        0.000699999975040555
      ],
      "type": "VEC2"
    },
    {
      "bufferView": 0,
      "byteOffset": 11208,
      "componentType": 5125,
      "count": 43038,
      "max": [
        9083
      ],
      "min": [
        0
      ],
      "type": "SCALAR"
    },
    {
      "bufferView": 2,
      "byteOffset": 237240,
      "componentType": 5126,
      "count": 5995,
      "max": [
        38.846500396728516,
        9.4330997467041016,
        171.43009948730469
      ],
      "min": [
        -39.013599395751953,
        -198.15310668945312,
        1.7763999700546265
      ],
      "type": "VEC3"
    },
    {
      "bufferView": 2,
      "byteOffset": 309180,
      "componentType": 5126,
      "count": 5995,
      "max": [
        1,
        1,
        1
      ],
      "min": [
        -1,
        -1,
        -1
      ],
      "type": "VEC3"
    },
    {
      "bufferView": 3,
      "byteOffset": 158160,
      "componentType": 5126,
      "count": 5995,
      "max": [
        1,
        1,
        0.9998822808265686,
        1
      ],
      "min": [
        -1,
        -1,
        -0.99985384941101074,
        -1
      ],
      "type": "VEC4"
    },
    {
      "bufferView": 1,
      "byteOffset": 79080,
      "componentType": 5126,
      "count": 5995,
      "max": [
        0.98409998416900635,
        0.8156999945640564
      ],
      "min": [
        0.01269999984651804,
        0.23800000548362732
      ],
      "type": "VEC2"
    },
    {
      "bufferView": 0,
      "byteOffset": 183360,
      "componentType": 5125,
      "count": 27624,
      "max": [
        5994
      ],
      "min": [
        0
      ],
      "type": "SCALAR"
    }
  ],
  "asset": {
    "extras": {
      "author": "Raelement (https://sketchfab.com/Raelement)",
      "license": "CC-BY-4.0 (http://creativecommons.org/licenses/by/4.0/)",
      "source": "https://sketchfab.com/models/a83f1baad4104cfa9e5dbc30a56550d9",
      "title": "security camera"
    },
    "generator": "Sketchfab-3.25.5",
    "version": "2.0"
  },
  "bufferViews": [
    {
      "buffer": 0,
      "byteLength": 293856,
      "byteOffset": 0,
      "name": "floatBufferViews",
      "target": 34963
    },
    {
      "buffer": 0,
      "byteLength": 127040,
      "byteOffset": 293856,
      "byteStride": 8,
      "name": "floatBufferViews",
      "target": 34962
    },
    {
      "buffer": 0,
      "byteLength": 381120,
      "byteOffset": 420896,
      "byteStride": 12,
      "name": "floatBufferViews",
      "target": 34962
    },
    {
      "buffer": 0,
      "byteLength": 254080,
      "byteOffset": 802016,
      "byteStride": 16,
      "name": "floatBufferViews",
      "target": 34962
    }
  ],
  "buffers": [
    {
      "byteLength": 1056096,
      "uri": "Scamera.bin"
    }
  ],
  "images": [
    {
      "uri": "textures/material_0_emissive.png"
    },
    {
      "uri": "textures/material_0_metallicRoughness.png"
    },
    {
      "uri": "textures/material_0_normal.png"
    },
    {
      "uri": "textures/material_0_baseColor.png"
    }
  ],
  "materials": [
    {
      "doubleSided": true,
      "emissiveFactor": [
        1,
        1,
        1
      ],
      "emissiveTexture": {
        "index": 0,
        "texCoord": 0
      },
      "name": "material_0",
      "normalTexture": {
        "index": 2,
        "scale": 1,
        "texCoord": 0
      },
      "occlusionTexture": {
        "index": 1,
        "strength": 1,
        "texCoord": 0
      },
      "pbrMetallicRoughness": {
        "baseColorFactor": [
          1,
          1,
          1,
          1
        ],
        "baseColorTexture": {
          "index": 3,
          "texCoord": 0
        },
        "metallicFactor": 1,
        "metallicRoughnessTexture": {
          "index": 1,
          "texCoord": 0
        },
        "roughnessFactor": 1
      }
    }
  ],
  "meshes": [
    {
      "primitives": [
        {
          "attributes": {
            "NORMAL": 1,
            "POSITION": 0,
            "TANGENT": 2,
            "TEXCOORD_0": 3
          },
          "indices": 4,
          "material": 0,
          "mode": 4
        }
      ]
    },
    {
      "primitives": [
        {
          "attributes": {
            "NORMAL": 6,
            "POSITION": 5,
            "TANGENT": 7,
            "TEXCOORD_0": 8
          },
          "indices": 9,
          "material": 0,
          "mode": 4
        }
      ]
    },
    {
      "primitives": [
        {
          "attributes": {
            "NORMAL": 11,
            "POSITION": 10,
            "TANGENT": 12,
            "TEXCOORD_0": 13
          },
          "indices": 14,
          "material": 0,
          "mode": 4
        }
      ]
    }
  ],
  "nodes": [
    {
      "children": [
        1
      ],
      "name": "RootNode (gltf orientation matrix)",
      "rotation": [
        -0.70710678118654746,
        -0,
        -0,
        0.70710678118654757
      ]
    },
    {
      "children": [
        2
      ],
      "name": "RootNode (model correction matrix)"
    },
    {
      "children": [
        3,
        4,
        5
      ],
      "name": "montion.obj.cleaner.materialmerger.gles"
    },
    {
      "mesh": 0,
      "name": ""
    },
    {
      "mesh": 1,
      "name": ""
    },
    {
      "mesh": 2,
      "name": ""
    }
  ],
  "samplers": [
    {
      "magFilter": 9729,
      "minFilter": 9987,
      "wrapS": 10497,
      "wrapT": 10497
    }
  ],
  "scene": 0,
  "scenes": [
    {
      "name": "OSG_Scene",
      "nodes": [
        0
      ]
    }
  ],
  "textures": [
    {
      "sampler": 0,
      "source": 0
    },
    {
      "sampler": 0,
      "source": 1
    },
    {
      "sampler": 0,
      "source": 2
    },
    {
      "sampler": 0,
      "source": 3
    }
  ]
}

